<svg width="100" height="94" viewBox="0 0 100 94" fill="none" xmlns="http://www.w3.org/2000/svg">
<path d="M59.4853 9.14567C58.8483 8.19382 57.5753 7.94532 56.6356 8.58996C55.696 9.23515 55.4507 10.5294 56.0873 11.481C57.9267 14.2307 58.8992 17.4431 58.8992 20.7707C58.8992 28.449 53.5188 35.2596 46.1303 36.9647C45.195 37.1805 44.5135 38.0226 44.5135 38.9944V47.7656C44.5135 48.9077 43.5858 49.8369 42.4583 49.8369C41.3307 49.8369 40.4031 48.9077 40.4031 47.7656V35.3064C40.4031 34.1643 41.3488 33.2351 42.4763 33.2351C49.2613 33.2351 54.7954 27.6437 54.7954 20.7707C54.7954 13.8977 49.2826 8.30628 42.4977 8.30628C35.7127 8.30628 30.1964 13.8977 30.1964 20.7707C30.1964 21.9129 29.2808 22.842 28.1532 22.842C27.0257 22.842 26.1093 21.9126 26.1093 20.7707C26.1093 11.6134 33.4639 4.16367 42.504 4.16367C45.0902 4.16367 47.5663 4.75872 49.8622 5.93219C50.8748 6.45023 52.1112 6.03801 52.6229 5.01164C53.1343 3.98527 52.7274 2.7334 51.7141 2.21508C48.8385 0.745472 45.74 0 42.5045 0C31.1981 0 22 9.3177 22 20.7704C22 24.2083 24.7613 27.0051 28.1549 27.0051C31.5485 27.0051 34.3098 24.208 34.3098 20.7704C34.3098 16.1934 37.9858 12.4697 42.5042 12.4697C47.0226 12.4697 50.699 16.1934 50.699 20.7704C50.699 25.3474 46.9947 29.0714 42.4761 29.0714C39.0822 29.0714 36.2927 31.8686 36.2927 35.3061V47.7653C36.2927 51.2032 39.0642 54 42.458 54C45.8519 54 48.6233 51.2032 48.6233 47.7653V40.5843C52.4594 39.3601 55.8942 36.9957 58.4365 33.8105C61.3734 30.1308 63 25.4998 63 20.7707C63 16.6073 61.7877 12.5874 59.4853 9.14567Z" fill="#00728E"/>
<path d="M43 57C39.6915 57 37 59.6918 37 63C37 66.3082 39.6918 69 43 69C46.3084 69 49 66.3082 49 63C49 59.6918 46.3082 57 43 57ZM43 64.9933C41.9008 64.9933 41.0067 64.0989 41.0067 63C41.0067 61.9011 41.9011 61.0067 43 61.0067C44.0989 61.0067 44.9933 61.9011 44.9933 63C44.9933 64.0992 44.0989 64.9933 43 64.9933Z" fill="#00728E"/>
<path d="M83.0033 21C73.6244 21 66 28.807 66 38.4031C66 41.4414 68.4187 43.913 71.3881 43.913C74.3576 43.913 76.7749 41.4414 76.7749 38.4031C76.7749 34.884 79.5748 32.0206 83.0146 32.0206C86.4543 32.0206 89.2529 34.884 89.2529 38.4034C89.2529 41.9228 86.4268 44.7863 82.9868 44.7863C80.0174 44.7863 77.574 47.2579 77.574 50.2961V60.4901C77.574 63.5284 79.9715 66 82.9409 66C85.9104 66 88.3079 63.5284 88.3079 60.4901V54.9108C91.3353 53.8611 94.1529 51.9187 96.1991 49.329C98.6353 46.2458 100 42.3655 100 38.4029C100.001 28.807 92.3822 21 83.0033 21ZM85.8321 51.2545C84.8926 51.4735 84.1806 52.3279 84.1806 53.3139V60.4904C84.1806 61.1995 83.6351 61.7762 82.942 61.7762C82.249 61.7762 81.7034 61.1995 81.7034 60.4904V50.2964C81.7034 49.5873 82.2946 49.0106 82.9876 49.0106C88.704 49.0106 93.3683 44.2523 93.3683 38.4034C93.3683 32.5546 88.7246 27.7963 83.0082 27.7963C77.2919 27.7963 72.6476 32.5543 72.6476 38.4031C72.6476 39.1123 72.0839 39.689 71.3909 39.689C70.6978 39.689 70.1342 39.1123 70.1342 38.4031C70.1342 31.1361 75.9123 25.224 83.0148 25.224C90.1173 25.224 95.8955 31.1361 95.8955 38.4031C95.8958 44.4968 91.6367 49.9018 85.8321 51.2545Z" fill="#4F4F4F"/>
<path d="M83 67C80.2429 67 78 69.2429 78 72C78 74.7571 80.2429 77 83 77C85.7571 77 88 74.7571 88 72C88 69.2429 85.7571 67 83 67ZM83 73.1671C82.3565 73.1671 81.8331 72.6437 81.8331 72.0002C81.8331 71.3568 82.3565 70.8334 83 70.8334C83.6435 70.8334 84.1668 71.3568 84.1668 72.0002C84.1668 72.6437 83.6435 73.1671 83 73.1671Z" fill="#00728E"/>
<path d="M15.5131 43C6.95905 43 0 50.1311 0 58.8967C0 61.7392 2.25656 64.0516 5.03054 64.0516C7.80452 64.0516 10.0611 61.7392 10.0611 58.8967C10.0611 55.8162 12.5067 53.3104 15.5126 53.3104C18.5185 53.3104 20.9641 55.8165 20.9641 58.8967C20.9641 61.9768 18.5022 64.483 15.4963 64.483C12.7224 64.483 10.4495 66.7953 10.4495 69.6379V78.8451C10.4495 81.6877 12.6969 84 15.4709 84C18.2449 84 20.4922 81.6877 20.4922 78.8451V73.9336C26.735 71.7537 31 65.6786 31 58.8964C31.0005 50.1314 24.0672 43 15.5131 43ZM18.0303 70.3296C17.1038 70.5459 16.4212 71.39 16.4212 72.3636V78.8454C16.4212 79.3875 16.0002 79.8283 15.4712 79.8283C14.9421 79.8283 14.5211 79.3875 14.5211 78.8454V69.6381C14.5211 69.0963 14.9676 68.6552 15.4966 68.6552C20.7477 68.6552 25.0278 64.2775 25.0278 58.8967C25.0278 53.5158 20.7599 49.1381 15.5088 49.1381C10.2578 49.1381 5.98762 53.5158 5.98762 58.8967C5.98762 59.4388 5.55825 59.8796 5.02946 59.8796C4.50067 59.8796 4.07076 59.4388 4.07076 58.8967C4.07076 52.4318 9.2037 47.172 15.5126 47.172C21.8212 47.172 26.9414 52.4315 26.9414 58.8967C26.942 64.3175 23.1868 69.1257 18.0303 70.3296Z" fill="#4F4F4F"/>
<path d="M16 84C13.2429 84 11 86.2429 11 89C11 91.7571 13.2429 94 16 94C18.7571 94 21 91.7571 21 89C21 86.2429 18.7571 84 16 84ZM16 89.9534C15.4742 89.9534 15.0466 89.5258 15.0466 89C15.0466 88.4741 15.4742 88.0466 16 88.0466C16.5259 88.0466 16.9534 88.4741 16.9534 89C16.9534 89.5258 16.5259 89.9534 16 89.9534Z" fill="#00728E"/>
</svg>
