<svg width="100" height="70" viewBox="0 0 100 70" fill="none" xmlns="http://www.w3.org/2000/svg">
<path d="M95.6659 41.2757C94.6777 40.2795 71.217 16.8822 49.5784 16.8822C25.2756 16.8822 4.27466 40.3809 3.39282 41.381C2.56893 42.3155 2.56893 43.7232 3.39282 44.6574C4.27466 45.6575 25.276 69.1562 49.5787 69.1562C57.4514 69.1562 65.8059 66.67 74.4104 61.7668C75.5865 61.0968 76.0012 59.5923 75.3365 58.4068C74.6712 57.2213 73.1793 56.8032 72.0032 57.4736C64.1419 61.9535 56.5976 64.2244 49.5787 64.2244C31.0165 64.2244 13.7584 48.2513 8.60311 43.0177C13.7528 37.7812 30.9843 21.8136 49.5787 21.8136C66.0471 21.8136 84.7652 37.8435 90.469 43.1102C88.7213 44.8861 85.6585 47.8215 81.6868 50.9291C80.6197 51.7642 80.4257 53.313 81.2542 54.3889C82.0829 55.4648 83.62 55.66 84.6865 54.825C91.4205 49.5563 95.5898 44.8552 95.7639 44.6577C96.6253 43.6815 96.582 42.1987 95.6659 41.2757Z" fill="#4F4F4F"/>
<path d="M49.5789 24.7707C39.5975 24.7707 31.4771 32.9561 31.4771 43.0174C31.4771 53.0787 39.5975 61.2642 49.5789 61.2642C59.5604 61.2642 67.6808 53.0787 67.6808 43.0174C67.6808 32.9561 59.5604 24.7707 49.5789 24.7707ZM49.5789 56.3324C42.2951 56.3324 36.3696 50.3592 36.3696 43.0174C36.3696 35.6753 42.2954 29.7024 49.5789 29.7024C56.8628 29.7024 62.7882 35.6756 62.7882 43.0174C62.7882 50.3596 56.8625 56.3324 49.5789 56.3324Z" fill="#00728E"/>
<path d="M52.1877 32.663C47.9614 32.663 44.5229 36.129 44.5229 40.389C44.5229 44.649 47.9614 48.115 52.1877 48.115C56.4139 48.115 59.8524 44.649 59.8524 40.389C59.8524 36.129 56.4142 32.663 52.1877 32.663ZM52.1877 43.1836C50.659 43.1836 49.4152 41.9302 49.4152 40.389C49.4152 38.8478 50.6587 37.5944 52.1877 37.5944C53.7163 37.5944 54.9601 38.8478 54.9601 40.389C54.9601 41.9302 53.7166 43.1836 52.1877 43.1836Z" fill="#4F4F4F"/>
<path d="M49.5791 1.10126C48.2279 1.10126 47.1328 2.2054 47.1328 3.56711V11.4575C47.1328 12.8192 48.2279 13.9234 49.5791 13.9234C50.9303 13.9234 52.0254 12.8192 52.0254 11.4575V3.56678C52.0251 2.20507 50.9303 1.10126 49.5791 1.10126Z" fill="#4F4F4F"/>
<path d="M98.275 22.8647C97.3193 21.9017 95.7708 21.9017 94.8154 22.8647L89.5969 28.1249C88.7066 29.0223 88.6471 30.5055 89.4671 31.4705C90.3818 32.5474 92.0615 32.6147 93.0566 31.6119L98.275 26.3517C99.2304 25.3887 99.2304 23.8275 98.275 22.8647Z" fill="#4F4F4F"/>
<path d="M79.6377 6.77596C78.514 6.02062 76.9948 6.32643 76.2457 7.45977L71.0273 15.3502C69.9668 16.9534 71.1367 19.184 73.0602 19.184C73.8509 19.184 74.6263 18.7985 75.0976 18.0854L80.3161 10.195C81.0657 9.06234 80.7617 7.53131 79.6377 6.77596Z" fill="#00728E"/>
<path d="M9.56063 28.1249L4.3422 22.8647C3.38647 21.9017 1.83797 21.9017 0.882568 22.8647C-0.0728353 23.8278 -0.0728353 25.389 0.882568 26.3517L6.10099 31.6119C6.57853 32.0936 7.20483 32.3341 7.83049 32.3341C9.96948 32.3341 11.0675 29.6438 9.56063 28.1249Z" fill="#4F4F4F"/>
<path d="M28.1306 15.3501L22.9122 7.45969C22.1628 6.32667 20.6443 6.02053 19.5203 6.77588C18.3962 7.53122 18.0922 9.06225 18.8419 10.1949L24.0603 18.0854C24.532 18.798 25.3074 19.1839 26.0977 19.1839C28.0209 19.1839 29.1912 16.9533 28.1306 15.3501Z" fill="#00728E"/>
</svg>
