<svg width="68" height="100" viewBox="0 0 68 100" fill="none" xmlns="http://www.w3.org/2000/svg">
<path d="M66.8171 12.8423C66.674 8.81523 66.55 5.33766 66.6849 2.67461C66.7679 1.03757 64.9222 -0.0582075 63.5318 0.810083C58.0944 4.20494 52.7394 4.91771 49.2048 4.91771C42.8007 4.91771 37.8787 2.68398 34.8775 0.810083C34.2095 0.392895 33.3635 0.392895 32.6957 0.810083C29.6948 2.6837 24.7729 4.91771 18.3685 4.91771C14.8339 4.91771 9.47893 4.20494 4.04122 0.810083C2.65109 -0.0579318 0.804807 1.03757 0.888067 2.67461C1.02299 5.33683 0.899057 8.81303 0.755895 12.8382C0.720997 13.8193 0.685003 14.8263 0.652029 15.8539C0.615207 16.9977 1.50908 17.955 2.64889 17.992C3.79666 18.0298 4.74274 17.1317 4.77957 15.9882C4.81254 14.9652 4.84826 13.9629 4.88316 12.9863C4.97301 10.463 5.05517 8.15043 5.07248 6.08407C10.1846 8.49869 14.9958 9.06174 18.3685 9.06174C25.0177 9.06174 30.2804 6.97194 33.7866 4.97865C37.2929 6.97167 42.5553 9.06174 49.2048 9.06174C52.5775 9.06174 57.3884 8.49869 62.5005 6.0838C62.5178 8.15126 62.6003 10.465 62.6901 12.9901C63.0369 22.731 63.4686 34.854 60.4611 43.9081C56.7147 55.1859 51.1184 59.8657 43.3728 66.343C40.4793 68.7626 37.247 71.4653 33.7866 74.8128C30.326 71.4651 27.0937 68.7626 24.2005 66.343C16.4549 59.8657 10.8583 55.1862 7.11221 43.9081C5.57259 39.273 4.76858 33.2716 4.65481 25.5615C4.63805 24.4172 3.70269 23.5117 2.55958 23.5205C1.41923 23.5373 0.508589 24.4787 0.525626 25.623C0.64763 33.8776 1.49562 40.1043 3.19433 45.2186C7.31226 57.6152 13.5985 62.8715 21.5565 69.5264C24.7858 72.2266 28.4459 75.2876 32.3267 79.1812C33.1217 79.9792 34.4519 79.9792 35.2468 79.1812C39.1276 75.2873 42.7878 72.2266 46.017 69.5264C53.9756 62.8715 60.2616 57.6149 64.3795 45.2186C67.6225 35.454 67.1757 22.9163 66.8171 12.8423Z" fill="#00728E"/>
<path d="M32.0295 27.7093C31.8435 27.5006 27.4038 22.5991 21.6809 22.5991C15.9579 22.5991 11.5185 27.5009 11.3322 27.7093C10.6301 28.4963 10.6301 29.6869 11.3322 30.4739C11.5182 30.6826 15.9579 35.5841 21.6809 35.5841C27.4038 35.5841 31.8432 30.6823 32.0295 30.4739C32.7313 29.6869 32.7313 28.4963 32.0295 27.7093ZM21.6809 31.44C19.4062 31.44 17.2972 30.1556 15.9426 29.0941C17.3011 28.0314 19.4156 26.7432 21.6809 26.7432C23.9555 26.7432 26.0645 28.0275 27.4192 29.0891C26.0607 30.1518 23.9462 31.44 21.6809 31.44Z" fill="#4F4F4F"/>
<path d="M56.2581 27.7093C56.072 27.5006 51.6323 22.5991 45.9094 22.5991C40.1865 22.5991 35.747 27.5009 35.5607 27.7093C34.8587 28.4963 34.8587 29.6869 35.5607 30.4739C35.7468 30.6826 40.1867 35.5841 45.9094 35.5841C51.6321 35.5841 56.0718 30.6823 56.2581 30.4739C56.9601 29.6869 56.9601 28.4963 56.2581 27.7093ZM45.9094 31.44C43.6347 31.44 41.5258 30.1556 40.1711 29.0941C41.5296 28.0314 43.6441 26.7432 45.9094 26.7432C48.1841 26.7432 50.293 28.0275 51.6477 29.0891C50.2892 30.1518 48.1747 31.44 45.9094 31.44Z" fill="#4F4F4F"/>
<path d="M46.6366 41.4062C46.2827 40.7152 45.5737 40.2806 44.7997 40.2806C44.0253 40.2806 43.3161 40.7152 42.9627 41.4062C41.8757 43.5305 38.3296 50.6737 38.3296 53.4037C38.3296 56.9836 41.2321 59.8962 44.7997 59.8962C48.3672 59.8962 51.2697 56.9836 51.2697 53.4037C51.2697 50.6739 47.7236 43.5305 46.6366 41.4062ZM44.7997 55.7522C43.5093 55.7522 42.4593 54.6989 42.4593 53.4037C42.4634 52.5939 43.4969 49.954 44.7997 47.1007C46.1021 49.9529 47.1356 52.5931 47.14 53.4037C47.14 54.6986 46.09 55.7522 44.7997 55.7522Z" fill="#00728E"/>
<path d="M59.8519 65.7188C59.498 65.0278 58.7891 64.5933 58.015 64.5933C57.2407 64.5933 56.5314 65.0278 56.1781 65.7188C55.091 67.8431 51.5449 74.9863 51.5449 77.7163C51.5449 81.2962 54.4475 84.2088 58.015 84.2088C61.5825 84.2088 64.4851 81.2962 64.4851 77.7163C64.4851 74.9863 60.939 67.8431 59.8519 65.7188ZM58.015 80.0645C56.7246 80.0645 55.6747 79.0112 55.6747 77.7161C55.6788 76.9062 56.7122 74.2663 58.015 71.413C59.3175 74.2652 60.3509 76.9054 60.3553 77.7161C60.3553 79.0112 59.3054 80.0645 58.015 80.0645Z" fill="#00728E"/>
<path d="M42.2313 81.1899C41.8774 80.4989 41.1685 80.0643 40.3944 80.0643C39.62 80.0643 38.9108 80.4989 38.5574 81.1899C37.4704 83.3142 33.9243 90.4574 33.9243 93.1874C33.9243 96.7673 36.8269 99.6799 40.3944 99.6799C43.9619 99.6799 46.8645 96.7673 46.8645 93.1874C46.8645 90.4576 43.3184 83.3142 42.2313 81.1899ZM40.3944 95.5359C39.104 95.5359 38.054 94.4825 38.054 93.1874C38.0582 92.3776 39.0916 89.7377 40.3944 86.8844C41.6969 89.7366 42.7303 92.3767 42.7347 93.1874C42.7347 94.4823 41.6848 95.5359 40.3944 95.5359Z" fill="#00728E"/>
</svg>
