<svg width="101" height="65" viewBox="0 0 101 65" fill="none" xmlns="http://www.w3.org/2000/svg">
<path d="M63.8589 33.3627C63.5323 32.4198 62.604 31.758 61.6076 31.758H55.8943L63.59 22.587C64.627 21.0296 63.4715 18.879 61.6079 18.879H46.3605C45.5638 18.879 44.8197 19.2773 44.3784 19.9412L34.2133 32.8203C33.1763 34.3777 34.3319 36.5283 36.1954 36.5283H39.9643L31.5233 53.4289C31.0757 54.3252 31.2469 55.4367 31.9443 56.1559C32.7601 56.9966 34.1078 57.115 35.0554 56.4247L63.0089 36.0725C63.8411 35.4663 64.1952 34.3358 63.8589 33.3627ZM40.1539 46.8134L45.9496 35.2096C46.7289 33.6506 45.5565 31.758 43.8188 31.758H40.6466L47.635 23.6489H57.1561L49.4604 32.82C48.4234 34.3774 49.579 36.528 51.4426 36.528H54.2816L40.1539 46.8134Z" fill="#4F4F4F"/>
<path d="M84.2291 24.7144C83.3268 15.8233 75.8049 8.86147 66.6898 8.86147C64.5587 8.86147 62.4387 9.25186 60.4544 10.0015C56.7156 4.54063 50.5255 1.22937 43.819 1.22937C32.6965 1.22937 23.648 10.2881 23.648 21.4225C23.648 22.4026 23.7178 23.3748 23.8566 24.3345C22.8976 24.1955 21.9268 24.1257 20.9478 24.1257C9.82533 24.1257 0.776855 33.1844 0.776855 44.3188C0.776855 55.4533 9.82564 64.512 20.9478 64.512H60.2312C61.5472 64.512 62.6137 63.444 62.6137 62.1269C62.6137 60.8097 61.5472 59.7417 60.2312 59.7417H20.9475C12.4526 59.7417 5.54125 52.8228 5.54125 44.3185C5.54125 35.8143 12.4526 28.8953 20.9475 28.8953C22.7904 28.8953 24.594 29.2187 26.3095 29.8563C28.1816 30.5527 30.0673 28.6646 29.3727 26.7901C28.7355 25.0724 28.4127 23.2665 28.4127 21.4222C28.4127 12.9179 35.3241 5.999 43.819 5.999C49.5158 5.999 54.725 9.12808 57.4144 14.1649C58.0345 15.3266 59.477 15.7652 60.6383 15.1444C62.4882 14.1545 64.5809 13.6314 66.6901 13.6314C73.7841 13.6314 79.5551 19.4091 79.5551 26.4994L79.5506 26.6574C79.5322 27.8578 80.4082 28.8852 81.5958 29.055C89.1247 30.1315 94.8022 36.6937 94.8022 44.3188C94.8022 52.8231 87.8909 59.7421 79.3959 59.7421H72.0899C70.7739 59.7421 69.7074 60.8101 69.7074 62.1272C69.7074 63.4443 70.7739 64.5123 72.0899 64.5123H79.3959C90.5181 64.512 99.5669 55.4533 99.5669 44.3188C99.5669 35.0081 93.0997 26.9075 84.2291 24.7144Z" fill="#00728E"/>
</svg>
