<svg width="102" height="87" viewBox="0 0 102 87" fill="none" xmlns="http://www.w3.org/2000/svg">
<path d="M100.795 46.7398C100.795 41.7548 98.5327 37.1535 94.7366 34.1148C94.7232 34.1034 94.7112 34.0909 94.6972 34.0801C94.5007 33.9231 94.2996 33.7719 94.0964 33.6248C94.0888 33.6193 94.0818 33.6134 94.0742 33.6079C95.4191 31.2108 96.1206 28.5263 96.1206 25.7255C96.1206 16.7935 88.8478 9.52687 79.9083 9.52687C77.1197 9.52687 74.4096 10.24 72.0152 11.575C69.9455 4.96548 63.7267 0.187378 56.54 0.187378C51.1211 0.187378 46.0661 2.9372 43.0828 7.35643C40.0484 5.71557 36.6645 4.85712 33.1713 4.85712C22.5109 4.85712 13.6507 12.8377 12.4294 23.2652C5.19982 26.7316 0.601074 33.9711 0.601074 42.0697C0.601074 53.5764 9.97058 62.9381 21.487 62.9381C25.6091 62.9381 29.5653 61.7484 32.983 59.4894L42.7204 60.5136C43.9242 60.6403 45.002 59.7682 45.1285 58.5657C45.2553 57.3636 44.3822 56.2864 43.179 56.1596L37.4141 55.5535C38.3036 54.506 39.0963 53.3778 39.7604 52.182C40.3476 51.1249 39.9656 49.7922 38.9076 49.2059C37.8496 48.6195 36.5158 49.0011 35.929 50.0579C34.7657 52.1526 33.1238 54.0029 31.1801 55.4157C31.1617 55.4282 31.1422 55.4393 31.1241 55.4524C28.302 57.4856 24.9694 58.5602 21.4867 58.5602C12.3863 58.5602 4.98233 51.1625 4.98233 42.0697C4.98233 36.407 7.82951 31.2773 12.4431 28.2725C12.7839 31.0495 13.6775 33.7378 15.0807 36.1611C15.7253 37.2747 17.2398 37.5908 18.2786 36.8261C19.1652 36.1736 19.4246 34.9208 18.8736 33.9691C17.4299 31.4756 16.6669 28.6247 16.6669 25.7255C16.6669 25.5746 16.6827 24.9981 16.69 24.8565C17.1436 16.0964 24.3831 9.2347 33.1707 9.2347C36.5642 9.2347 39.8266 10.2595 42.6047 12.1983C43.7003 12.9627 45.269 12.5447 45.8396 11.3396C47.7879 7.22389 51.9879 4.56495 56.5397 4.56495C62.3623 4.56495 67.3109 8.86242 68.215 14.5147C65.3622 17.4955 63.6964 21.5064 63.6964 25.7252C63.6964 28.9285 64.6313 32.0268 66.4001 34.6848C67.1132 35.7565 68.645 35.9767 69.6333 35.1491C70.4776 34.4425 70.6581 33.1762 70.0487 32.2607C68.7593 30.3233 68.0779 28.0634 68.0779 25.7252C68.0779 22.3255 69.5601 19.1105 72.0551 16.8885C74.2052 14.9784 77.0314 13.9047 79.9086 13.9047C86.4321 13.9047 91.739 19.2075 91.739 25.7252C91.739 27.798 91.2096 29.7829 90.2008 31.5511C88.4117 30.8913 86.5076 30.5409 84.5823 30.5409C83.3724 30.5409 82.3914 31.5211 82.3914 32.7299C82.3914 33.9388 83.3724 34.919 84.5823 34.919C87.0263 34.919 89.4163 35.6775 91.4116 37.0886C94.5317 39.2873 96.413 42.855 96.413 46.7398C96.413 53.2578 91.1058 58.5602 84.5826 58.5602C83.3861 58.5602 82.1844 58.3776 81.0427 58.019C76.2434 56.5121 72.7519 52.0259 72.7519 46.7395C72.7519 45.5306 71.7709 44.5504 70.561 44.5504C69.3511 44.5504 68.3701 45.5306 68.3701 46.7395C68.3701 53.2636 72.2522 58.8952 77.8279 61.4597L82.082 78.4629L78.4212 80.9013L67.8464 59.7699C67.512 59.1017 66.8599 58.6499 66.1162 58.5718L53.4916 57.2441C52.2896 57.1186 51.2103 57.9898 51.0835 59.192C50.9567 60.3942 51.8298 61.4714 53.033 61.5981L64.464 62.8003L75.6119 85.0768C76.1918 86.2355 77.7055 86.6395 78.7865 85.9192L85.7971 81.2494C86.5674 80.7365 86.9321 79.7947 86.7073 78.8972L82.6867 62.828C83.3141 62.9014 83.9502 62.9378 84.582 62.9378C93.5221 62.9381 100.795 55.6717 100.795 46.7398Z" fill="#00728E"/>
<path d="M59.9962 36.1359L54.3342 30.4787L59.8787 24.9388C60.7343 24.0839 60.7343 22.6979 59.8787 21.8433L53.2692 15.2393C52.4135 14.3844 51.0264 14.3844 50.171 15.2393L44.6265 20.7792L38.9645 15.1219C38.1088 14.267 36.7217 14.267 35.8663 15.1219L29.2568 21.7259C28.4011 22.5808 28.4011 23.9668 29.2568 24.8215L34.9188 30.4787L29.1393 36.2533C28.2836 37.108 28.2836 38.4939 29.1393 39.3489L35.7488 45.9528C36.5928 46.7961 38.003 46.7961 38.847 45.9528L44.6265 40.1782L50.2885 45.8354C51.1325 46.6787 52.5427 46.6787 53.3867 45.8354L59.9962 39.2315C60.8518 38.3766 60.8518 36.9903 59.9962 36.1359ZM51.7208 19.8823L55.2321 23.3906L51.2366 27.3828L47.7253 23.8745L51.7208 19.8823ZM37.2983 41.3093L33.787 37.801L38.0173 33.5743L41.5289 37.0829L37.2983 41.3093ZM51.838 41.1922L33.9042 23.2735L37.4158 19.7652L55.3496 37.6839L51.838 41.1922Z" fill="#4F4F4F"/>
</svg>
