<svg width="104" height="103" viewBox="0 0 104 103" fill="none" xmlns="http://www.w3.org/2000/svg">
<path d="M73.7317 41.0531C73.1105 39.8305 71.62 39.3441 70.4022 39.9674C69.1845 40.5908 68.6999 42.0872 69.3208 43.3101C71.7662 48.1283 72.1253 53.6863 70.3051 58.559C63.7245 76.1767 43.2854 88.3251 38.2967 91.0768C36.5252 90.1035 32.8153 87.9567 28.4999 84.822C27.3922 84.0178 25.845 84.2675 25.0433 85.3786C24.2419 86.4907 24.4902 88.0443 25.5977 88.8489C31.9651 93.4736 36.9815 96.0081 37.1919 96.1139C37.8827 96.4605 38.715 96.4605 39.4058 96.1139C40.5195 95.555 66.772 82.1725 74.9403 60.3044C77.2473 54.1281 76.8069 47.1117 73.7317 41.0531Z" fill="#00728E"/>
<path d="M61.8412 30.0347C57.4033 28.328 48.6207 26.8273 38.2966 34.9971C28.9468 27.6372 18.6128 26.6319 10.3279 32.3879C1.54168 38.4925 -2.10468 50.2328 1.6573 60.3044C4.01377 66.6134 8.12623 72.8261 13.8804 78.7704C14.8205 79.7413 16.4134 79.7644 17.3805 78.8203C18.3611 77.8636 18.3832 76.2905 17.4302 75.3064C12.155 69.8569 8.4072 64.2222 6.29218 58.5594C3.36388 50.718 6.30964 41.2237 13.1452 36.4747C20.0298 31.6915 28.6039 33.011 36.6684 40.0961C37.6019 40.9159 38.9952 40.9159 39.9284 40.0961C46.6503 34.1909 53.803 32.2659 60.0697 34.676C61.3461 35.1668 62.7776 34.5259 63.2668 33.2444C63.7559 31.9627 63.1179 30.5258 61.8412 30.0347Z" fill="#00728E"/>
<path d="M22.8755 81.5308C21.909 80.5602 20.3418 80.5602 19.375 81.5308L3.53326 97.4352C2.63204 98.3396 2.57209 99.8344 3.4015 100.807C4.32709 101.892 6.02675 101.96 7.0337 100.949L22.8755 85.0451C23.8422 84.0745 23.8422 82.5011 22.8755 81.5308Z" fill="#4F4F4F"/>
<path d="M102.621 16.0688C102.238 15.1403 101.335 14.5348 100.334 14.5348H89.6075V3.76638C89.6075 2.76107 89.0044 1.8553 88.0794 1.47038C87.1548 1.08611 86.0899 1.29809 85.3821 2.00908L72.1807 15.2626C71.7162 15.7286 71.4557 16.3605 71.4557 17.0196V29.2443L40.4971 60.3252C39.5959 61.2297 39.536 62.7244 40.3654 63.697C41.291 64.782 42.9906 64.8504 43.9976 63.8395L74.9561 32.7586H87.1324C87.7889 32.7586 88.4187 32.4967 88.8825 32.0308L102.084 18.7772C102.792 18.0662 103.004 16.9978 102.621 16.0688ZM76.4061 18.049L84.6571 9.76549V15.9905L76.4061 24.274V18.049ZM86.107 27.7883H79.9066L88.1575 19.5047H94.358L86.107 27.7883Z" fill="#4F4F4F"/>
</svg>
