<svg width="30" height="30" viewBox="0 0 30 30" fill="none" xmlns="http://www.w3.org/2000/svg">
<path d="M9.84236 20.5359C11.0779 22.2779 12.3114 23.8359 13.1289 24.8394C13.2479 24.9854 13.3594 25.1208 13.4674 25.2513H11.0004C10.7243 25.2513 10.5004 25.4752 10.5004 25.7513C10.5004 26.0275 10.7243 26.2513 11.0004 26.2513H19.0004C19.2765 26.2513 19.5003 26.0275 19.5003 25.7513C19.5003 25.4752 19.2765 25.2513 19.0004 25.2513H16.5334C16.6414 25.1208 16.7529 24.9853 16.8724 24.8394C17.6894 23.8393 18.9224 22.2779 20.1584 20.5359C21.3847 18.8422 22.4885 17.0632 23.4614 15.2124C24.4824 13.2073 25.0004 11.5429 25.0004 10.2649C25.0038 7.60933 23.9501 5.06166 22.0719 3.18431C21.9465 3.05423 21.7606 3.00197 21.5858 3.04761C21.4109 3.09325 21.2743 3.22966 21.2284 3.40445C21.1825 3.57923 21.2345 3.76515 21.3644 3.89078C23.055 5.58086 24.0034 7.87429 24.0004 10.2648C24.0004 11.3838 23.5194 12.8958 22.5704 14.7583C21.6195 16.5662 20.5407 18.304 19.3424 19.9584C18.1234 21.6779 16.9049 23.2184 16.0974 24.2084C15.829 24.5374 15.5874 24.8283 15.3814 25.0744C15.2853 25.1842 15.1464 25.2471 15.0004 25.2471C14.8545 25.2471 14.7156 25.1841 14.6195 25.0744C14.4135 24.8284 14.172 24.5374 13.9035 24.2084C13.096 23.2189 11.8774 21.6783 10.6585 19.9584C9.46015 18.304 8.38138 16.5662 7.43046 14.7583C6.48047 12.8958 6.00047 11.3838 6.00047 10.2648C6.00018 6.64317 8.16605 3.37257 11.5005 1.95929C13.741 1.01979 16.265 1.01979 18.5055 1.95929C18.6701 2.02901 18.8593 2.00575 19.0019 1.89811C19.1446 1.79053 19.219 1.61499 19.1972 1.43762C19.1753 1.26026 19.0605 1.10803 18.896 1.03831C13.8043 -1.10928 7.93565 1.27631 5.78649 6.36731C5.26529 7.60048 4.99799 8.92605 5.00051 10.2648C5.00051 11.5428 5.51854 13.2073 6.53954 15.2148C7.51231 17.0648 8.61616 18.843 9.84236 20.5359Z" fill="#4F4F4F"/>
<path d="M15.0001 5.75094C15.2763 5.75094 15.5001 5.52711 15.5001 5.25096C15.5001 4.97481 15.2763 4.75098 15.0001 4.75098C12.6148 4.75092 10.5615 6.43596 10.0961 8.7755C9.63068 11.115 10.8828 13.4575 13.0866 14.3704C15.2903 15.2833 17.8321 14.5123 19.1574 12.5289C20.4826 10.5456 20.2223 7.90222 18.5356 6.21547C18.4101 6.08551 18.2242 6.03336 18.0493 6.07913C17.8746 6.12489 17.738 6.26141 17.6923 6.4362C17.6465 6.61104 17.6987 6.7969 17.8286 6.92247C19.178 8.27183 19.3863 10.3864 18.3262 11.9732C17.2661 13.5599 15.2327 14.1768 13.4696 13.4466C11.7066 12.7164 10.7049 10.8424 11.0771 8.97074C11.4493 7.09907 13.0918 5.751 15.0001 5.75094Z" fill="#4F4F4F"/>
</svg>
