<svg width="30" height="30" viewBox="0 0 30 30" fill="none" xmlns="http://www.w3.org/2000/svg">
<path d="M28.5 3.5H1.5C0.671602 3.5 0 4.17154 0 5V25C0 25.8284 0.671543 26.5 1.5 26.5H28.5C29.3284 26.5 30 25.8284 30 25V5C30 4.1716 29.3285 3.5 28.5 3.5ZM29 25C29 25.2762 28.7762 25.5 28.5 25.5H1.5C1.22385 25.5 1.00002 25.2762 1.00002 25V5C1.00002 4.72385 1.22385 4.50002 1.5 4.50002H28.5C28.7762 4.50002 29 4.72385 29 5V25Z" fill="#4F4F4F"/>
<path d="M27.5435 5.50193C27.4114 5.49039 27.2801 5.53181 27.1786 5.61713L15.6435 15.3071C15.2715 15.6198 14.7285 15.6198 14.3565 15.3071L2.82155 5.61707C2.68473 5.50222 2.497 5.46906 2.32913 5.53011C2.16126 5.59117 2.03868 5.73718 2.00762 5.91314C1.97657 6.0891 2.04173 6.26822 2.17854 6.38306L13.7135 16.0725C14.457 16.6985 15.5431 16.6985 16.2866 16.0725L27.8215 6.38312C27.9231 6.29787 27.9866 6.17576 27.9982 6.04363C28.0097 5.9115 27.9683 5.78019 27.883 5.67865C27.7978 5.57699 27.6757 5.51347 27.5435 5.50193Z" fill="#4F4F4F"/>
<path d="M9.61664 16.0037C9.43962 15.9642 9.25517 16.0236 9.13447 16.159L2.13445 23.659C2.00777 23.7887 1.96125 23.9769 2.01293 24.1507C2.06461 24.3246 2.20634 24.4567 2.3833 24.4962C2.56031 24.5357 2.74476 24.4763 2.86547 24.341L9.86548 16.841C9.99216 16.7112 10.0387 16.523 9.98701 16.3492C9.93533 16.1755 9.79365 16.0432 9.61664 16.0037Z" fill="#4F4F4F"/>
<path d="M20.8655 16.159C20.7448 16.0236 20.5603 15.9642 20.3833 16.0037C20.2063 16.0432 20.0646 16.1755 20.0129 16.3492C19.9612 16.5231 20.0078 16.7112 20.1344 16.841L27.1345 24.341C27.3243 24.5354 27.6346 24.5426 27.8333 24.3573C28.032 24.1719 28.0463 23.8618 27.8655 23.6589L20.8655 16.159Z" fill="#4F4F4F"/>
</svg>
