<svg width="30" height="30" viewBox="0 0 30 30" fill="none" xmlns="http://www.w3.org/2000/svg">
<g clip-path="url(#clip0)">
<path d="M29.2133 23.1428L23.1412 19.0934C22.3706 18.5837 21.3377 18.7514 20.768 19.4788L18.9993 21.753C18.7719 22.0527 18.3587 22.1397 18.0299 21.957L17.6935 21.7715C16.5781 21.1636 15.1903 20.4067 12.3943 17.6096C9.59817 14.8126 8.83978 13.4237 8.23185 12.3104L8.04736 11.974C7.86217 11.6452 7.94747 11.2302 8.24731 11.0011L10.5199 9.23291C11.2471 8.66317 11.4151 7.63055 10.9059 6.85975L6.8565 0.787641C6.33469 0.00271798 5.28777 -0.232911 4.47994 0.2527L1.94081 1.77796C1.143 2.24699 0.557672 3.00661 0.307572 3.89763C-0.606765 7.22913 0.0810821 12.9788 8.55084 21.4495C15.2884 28.1865 20.3041 29.9983 23.7516 29.9983C24.545 30.0017 25.3353 29.8984 26.1013 29.6913C26.9925 29.4415 27.7522 28.8561 28.2209 28.0581L29.7477 25.5205C30.234 24.7125 29.9985 23.6649 29.2133 23.1428ZM28.8863 25.0075L27.363 27.5467C27.0265 28.1227 26.48 28.5462 25.8382 28.7285C22.7627 29.5729 17.3895 28.8735 9.2582 20.7422C1.12688 12.6109 0.427554 7.23815 1.27194 4.16214C1.45449 3.51958 1.87853 2.97245 2.45524 2.63535L4.99438 1.11208C5.34489 0.901178 5.79928 1.00341 6.02571 1.34402L8.2254 4.64652L10.0717 7.4156C10.2928 7.74995 10.2201 8.19806 9.90468 8.44547L7.63152 10.2137C6.93975 10.7426 6.7422 11.6998 7.16812 12.4594L7.34862 12.7873C7.98755 13.9591 8.7819 15.4169 11.682 18.3165C14.5821 21.2161 16.0394 22.0105 17.2107 22.6494L17.5391 22.8303C18.2986 23.2562 19.2558 23.0587 19.7848 22.3669L21.553 20.0938C21.8004 19.7785 22.2484 19.7059 22.5828 19.9268L28.6544 23.9762C28.9953 24.2024 29.0975 24.6571 28.8863 25.0075Z" fill="#4F4F4F"/>
</g>
<defs>
<clipPath id="clip0">
<rect width="30" height="30" fill="white"/>
</clipPath>
</defs>
</svg>
